<?xml version="1.0" encoding="UTF-8"?>
<!DOCTYPE svg PUBLIC "-//W3C//DTD SVG 1.1//EN" "http://www.w3.org/Graphics/SVG/1.1/DTD/svg11.dtd">
<svg xmlns="http://www.w3.org/2000/svg" version="1.1" width="2000px" height="299px" style="shape-rendering:geometricPrecision; text-rendering:geometricPrecision; image-rendering:optimizeQuality; fill-rule:evenodd; clip-rule:evenodd" xmlns:xlink="http://www.w3.org/1999/xlink">
<g><path style="opacity:0.984" fill="#0073d9" d="M 146.5,1.5 C 173.562,1.1215 199.895,5.28817 225.5,14C 231.834,16.1648 237.834,18.9982 243.5,22.5C 235.796,42.7987 227.63,62.7987 219,82.5C 136.496,44.3449 96.1622,70.6782 98,161.5C 101.857,215.511 130.357,237.344 183.5,227C 199.533,222.933 215.2,217.767 230.5,211.5C 231.5,233.49 231.833,255.49 231.5,277.5C 192.952,292.421 153.285,296.255 112.5,289C 66.23,278.064 37.0633,249.564 25,203.5C 15.4855,164.205 16.4855,125.205 28,86.5C 49.2511,32.786 88.7511,4.45263 146.5,1.5 Z"/></g>
<g><path style="opacity:0.978" fill="#fefffe" d="M 285.5,5.5 C 311.167,5.5 336.833,5.5 362.5,5.5C 362.5,99.8333 362.5,194.167 362.5,288.5C 336.592,288.828 310.759,288.495 285,287.5C 284.169,193.43 284.336,99.4301 285.5,5.5 Z"/></g>
<g><path style="opacity:0.981" fill="#fefffe" d="M 422.5,5.5 C 456.173,5.1668 489.84,5.50013 523.5,6.5C 557.078,71.3243 590.912,135.991 625,200.5C 623.646,135.524 623.146,70.524 623.5,5.5C 646.5,5.5 669.5,5.5 692.5,5.5C 692.5,99.8333 692.5,194.167 692.5,288.5C 658.493,288.833 624.493,288.5 590.5,287.5C 556.333,221.833 522.167,156.167 488,90.5C 489.404,112.784 490.404,135.117 491,157.5C 491.5,201.165 491.667,244.832 491.5,288.5C 468.5,288.5 445.5,288.5 422.5,288.5C 422.5,194.167 422.5,99.8333 422.5,5.5 Z"/></g>
<g><path style="opacity:0.98" fill="#fefffe" d="M 751.5,5.5 C 807.833,5.5 864.167,5.5 920.5,5.5C 920.5,26.1667 920.5,46.8333 920.5,67.5C 890.167,67.5 859.833,67.5 829.5,67.5C 829.5,82.1667 829.5,96.8333 829.5,111.5C 857.5,111.5 885.5,111.5 913.5,111.5C 913.5,132.167 913.5,152.833 913.5,173.5C 885.5,173.5 857.5,173.5 829.5,173.5C 829.5,190.833 829.5,208.167 829.5,225.5C 859.833,225.5 890.167,225.5 920.5,225.5C 920.5,246.5 920.5,267.5 920.5,288.5C 864.167,288.5 807.833,288.5 751.5,288.5C 751.5,194.167 751.5,99.8333 751.5,5.5 Z"/></g>
<g><path style="opacity:0.985" fill="#fefffe" d="M 968.5,5.5 C 1011.18,5.13096 1053.85,5.63096 1096.5,7C 1118.96,7.77708 1139.63,14.1104 1158.5,26C 1178.21,43.9583 1185.37,66.1249 1180,92.5C 1174.75,116.248 1160.58,131.915 1137.5,139.5C 1176.83,151.782 1192.99,178.449 1186,219.5C 1179.54,250.294 1161.38,270.794 1131.5,281C 1120.09,284.615 1108.42,286.949 1096.5,288C 1053.83,288.5 1011.17,288.667 968.5,288.5C 968.5,194.167 968.5,99.8333 968.5,5.5 Z M 1045.5,64.5 C 1055.84,64.3335 1066.17,64.5002 1076.5,65C 1099.87,68.3423 1107.03,80.8423 1098,102.5C 1090.48,111.012 1080.98,114.845 1069.5,114C 1061.51,114.5 1053.51,114.666 1045.5,114.5C 1045.5,97.8333 1045.5,81.1667 1045.5,64.5 Z M 1045.5,170.5 C 1056.17,170.333 1066.84,170.5 1077.5,171C 1103.56,174.959 1112.4,189.459 1104,214.5C 1099.55,222.616 1092.72,227.116 1083.5,228C 1070.84,228.5 1058.17,228.667 1045.5,228.5C 1045.5,209.167 1045.5,189.833 1045.5,170.5 Z"/></g>
<g><path style="opacity:0.986" fill="#fefffe" d="M 1233.5,5.5 C 1259.17,5.5 1284.83,5.5 1310.5,5.5C 1310.33,61.1677 1310.5,116.834 1311,172.5C 1310.66,185.831 1313.33,198.498 1319,210.5C 1327.84,222.588 1339.84,228.588 1355,228.5C 1379.84,228.42 1393.84,216.087 1397,191.5C 1398.47,129.525 1398.97,67.5251 1398.5,5.5C 1424.17,5.5 1449.83,5.5 1475.5,5.5C 1475.67,67.5009 1475.5,129.501 1475,191.5C 1470.35,244.025 1442.52,276.525 1391.5,289C 1358.95,295.267 1326.95,293.267 1295.5,283C 1257.04,265.305 1236.54,235.138 1234,192.5C 1233.5,130.168 1233.33,67.8342 1233.5,5.5 Z"/></g>
<g><path style="opacity:0.984" fill="#fefffe" d="M 1518.5,5.5 C 1589.83,5.5 1661.17,5.5 1732.5,5.5C 1732.97,22.5946 1732.47,39.5946 1731,56.5C 1691.17,113 1651.33,169.5 1611.5,226C 1652.83,226.5 1694.17,226.667 1735.5,226.5C 1735.5,247.167 1735.5,267.833 1735.5,288.5C 1662.17,288.5 1588.83,288.5 1515.5,288.5C 1515.33,272.163 1515.5,255.83 1516,239.5C 1556.17,182.667 1596.33,125.833 1636.5,69C 1597.17,68.5 1557.83,68.3333 1518.5,68.5C 1518.5,47.5 1518.5,26.5 1518.5,5.5 Z"/></g>
<g><path style="opacity:0.982" fill="#fefffe" d="M 1759.5,5.5 C 1831.17,5.5 1902.83,5.5 1974.5,5.5C 1974.97,22.2616 1974.47,38.9282 1973,55.5C 1932.83,112.333 1892.67,169.167 1852.5,226C 1894.17,226.5 1935.83,226.667 1977.5,226.5C 1977.5,247.167 1977.5,267.833 1977.5,288.5C 1903.83,288.5 1830.17,288.5 1756.5,288.5C 1756.03,271.738 1756.53,255.072 1758,238.5C 1797.83,182 1837.67,125.5 1877.5,69C 1838.17,68.5 1798.83,68.3333 1759.5,68.5C 1759.5,47.5 1759.5,26.5 1759.5,5.5 Z"/></g>
</svg>
