<?xml version="1.0" standalone="no"?>
<!DOCTYPE svg PUBLIC "-//W3C//DTD SVG 20010904//EN"
 "http://www.w3.org/TR/2001/REC-SVG-20010904/DTD/svg10.dtd">
<svg version="1.0" xmlns="http://www.w3.org/2000/svg"
 width="2000.000000pt" height="2620.000000pt" viewBox="0 0 2000.000000 2620.000000"
 preserveAspectRatio="xMidYMid meet">

<g transform="translate(0.000000,2620.000000) scale(0.100000,-0.100000)"
fill="#000000" stroke="none">
<path d="M12470 25889 c-1692 -51 -3261 -371 -4671 -953 -1117 -460 -2185
-1106 -3134 -1896 -399 -332 -904 -818 -1231 -1186 -1901 -2136 -2966 -4743
-3179 -7774 -51 -733 -51 -1621 0 -2335 139 -1939 623 -3666 1453 -5185 1086
-1989 2664 -3519 4707 -4566 1347 -690 2890 -1134 4565 -1313 573 -62 947 -82
1635 -88 597 -5 851 1 1270 33 1956 147 3775 704 5483 1676 68 39 126 76 128
83 3 6 -216 1257 -486 2779 -269 1522 -490 2769 -490 2771 0 2 -55 -19 -122
-46 -886 -359 -1675 -616 -2299 -749 -789 -169 -1848 -229 -2711 -155 -1707
148 -3032 788 -3973 1920 -723 869 -1158 2005 -1280 3340 -47 516 -49 1202 -5
1725 121 1434 546 2612 1283 3550 185 235 532 592 756 779 728 606 1581 1001
2580 1196 757 147 1640 178 2501 89 1124 -116 2195 -401 3129 -834 73 -34 135
-59 137 -57 3 3 218 1259 478 2793 461 2716 473 2789 454 2804 -10 9 -89 61
-176 117 -1029 661 -2341 1111 -3867 1327 -920 130 -1956 185 -2935 155z"/>
</g>
</svg>
